<svg width="189" height="46" viewBox="0 0 189 46" fill="none" xmlns="http://www.w3.org/2000/svg">
<g clip-path="url(#clip0_1_3)">
<path d="M170.404 17.0271C169.504 17.0271 168.751 16.8742 167.998 16.7271C163.629 15.3686 161.224 10.7051 162.576 6.33555C163.929 1.97191 168.598 -0.43927 172.962 0.919222C177.332 2.27183 179.737 6.94129 178.537 11.3049C178.084 12.9633 176.879 14.4689 175.526 15.5215C173.868 16.4272 172.062 17.0271 170.404 17.0271ZM170.404 1.37205C166.34 1.37205 163.176 4.68301 163.329 8.74673C163.329 11.9107 165.434 14.6159 168.298 15.5215C169.051 15.6745 169.651 15.8215 170.404 15.8215C174.467 15.8215 177.631 12.5105 177.479 8.4468C177.479 5.28287 175.373 2.57176 172.515 1.67198C171.762 1.51908 171.157 1.51908 170.404 1.37205Z" fill="#3854A2"/>
<path d="M177.331 21.5436C176.426 21.5436 175.673 21.3907 174.92 21.2437C170.557 19.8852 168.146 15.2216 169.504 10.8521C170.857 6.48846 175.526 4.07728 179.89 5.43577C181.995 6.03563 183.806 7.54114 184.859 9.49949C185.912 11.4578 186.065 13.7161 185.459 15.8215C184.859 17.4799 183.806 18.9854 182.448 20.0381C180.795 21.0908 179.137 21.5436 177.331 21.5436ZM177.331 6.03563C176.126 6.03563 174.92 6.33555 174.021 6.94129C170.557 8.89963 169.198 13.2633 171.01 16.7271C171.909 18.3797 173.415 19.5853 175.22 20.191C175.973 20.338 176.579 20.4909 177.331 20.4909C181.395 20.4909 184.559 17.327 184.559 13.2633C184.559 12.0577 184.253 10.8521 183.653 9.95232C182.748 8.2939 181.242 6.94129 179.437 6.48846C178.684 6.18853 178.084 6.03563 177.331 6.03563Z" fill="#3854A2"/>
<path d="M162.123 16.8742C161.224 16.8742 160.471 16.7271 159.718 16.5742C155.349 15.3686 152.79 10.7051 153.996 6.33555C155.202 1.97191 159.865 -0.586291 164.235 0.619297C164.382 0.619297 164.535 0.619296 164.682 0.76632C169.051 2.12481 171.456 6.78838 170.104 11.1579C169.504 13.2633 167.998 15.0687 166.04 15.9744C164.682 16.5742 163.329 16.8742 162.123 16.8742ZM162.123 1.37206C158.06 1.37206 154.896 4.68301 154.896 8.59383C154.896 9.79942 155.202 10.8521 155.649 11.9107C156.554 13.5632 158.06 14.9217 159.865 15.3686C160.618 15.5216 161.224 15.6745 161.976 15.6745C163.176 15.6745 164.235 15.3686 165.287 14.7688C168.751 12.8104 170.104 8.4468 168.145 4.98294C167.093 2.87757 164.682 1.37206 162.123 1.37206Z" fill="#3854A2"/>
<path d="M151.438 28.7713C150.532 28.7713 149.779 28.6184 149.027 28.4713C144.663 27.1128 142.252 22.4493 143.604 18.0797C144.21 15.9744 145.716 14.1689 147.674 13.2633C151.738 11.1579 156.707 12.6634 158.813 16.7271C160.771 20.338 159.718 24.8546 156.401 27.2657C154.896 28.1655 153.243 28.7713 151.438 28.7713ZM151.438 13.2633C147.368 13.2633 144.21 16.5742 144.357 20.6379C144.357 23.8019 146.468 26.513 149.327 27.4128C150.079 27.5657 150.685 27.7186 151.438 27.7186C155.502 27.7186 158.66 24.4017 158.66 20.4909C158.66 19.2853 158.36 18.2326 157.907 17.18C156.554 14.7688 154.143 13.2633 151.438 13.2633Z" fill="#3854A2"/>
<path d="M155.049 21.2437C150.532 21.2437 146.768 17.4799 146.768 12.9633C146.768 8.4468 150.532 4.68301 155.049 4.68301C159.565 4.68301 163.329 8.4468 163.329 12.9633C163.329 15.9744 161.671 18.8325 158.965 20.338C157.607 20.9438 156.401 21.2437 155.049 21.2437ZM155.049 5.7357C150.985 5.7357 147.821 9.04666 147.821 12.9633C147.821 14.1689 148.121 15.2216 148.574 16.2743C149.479 17.9327 150.985 19.2853 152.79 19.7382C154.596 20.338 156.554 20.191 158.36 19.2853C161.824 17.327 163.176 12.9633 161.224 9.49949C160.018 7.24121 157.607 5.7357 155.049 5.7357Z" fill="#3854A2"/>
<path d="M152.491 36.8987C151.585 36.8987 150.832 36.7517 150.079 36.4459C145.716 35.0933 143.305 30.4238 144.663 26.0602C146.016 21.6965 150.685 19.2853 155.049 20.6379C157.154 21.2437 158.965 22.7492 159.865 24.7075C161.976 28.7713 160.471 33.7406 156.401 35.846C155.202 36.5988 153.843 36.8987 152.491 36.8987ZM152.491 21.3907C148.427 21.3907 145.263 24.7075 145.263 28.6184C145.263 29.8239 145.563 30.8766 146.016 31.9293C146.921 33.5877 148.427 34.9404 150.232 35.3932C152.038 35.9989 153.996 35.846 155.801 34.9403C159.265 32.9879 160.618 28.6184 158.812 25.1545C157.907 23.502 156.401 22.2964 154.596 21.6965C153.996 21.5436 153.243 21.3907 152.491 21.3907Z" fill="#3854A2"/>
<path d="M180.642 29.2241C179.737 29.2241 178.984 29.0712 178.231 28.9183C173.868 27.5657 171.456 22.8962 172.815 18.5326C174.168 14.1689 178.837 11.7578 183.201 13.1104C185.312 13.7161 187.117 15.2216 188.017 17.18C189.975 20.7909 188.923 25.3074 185.612 27.7186C184.106 28.6184 182.448 29.2241 180.642 29.2241ZM180.642 13.7161C176.579 13.7161 173.415 17.0271 173.568 21.0908C173.568 24.2547 175.673 26.9658 178.537 27.8656C179.29 28.0185 179.89 28.1655 180.642 28.1655C184.706 28.1655 187.87 24.8546 187.87 20.9438C187.87 19.7382 187.57 18.6855 187.117 17.6269C185.759 15.2216 183.354 13.7161 180.642 13.7161Z" fill="#3854A2"/>
<path d="M179.29 37.3515C178.384 37.3515 177.632 37.1986 176.879 37.0516C172.515 35.6931 170.104 31.0295 171.457 26.66C172.815 22.2964 177.479 19.8852 181.848 21.2437C183.954 21.8435 185.759 23.3491 186.665 25.3074C188.623 28.9183 187.57 33.4348 184.253 35.846C182.748 36.8987 181.095 37.3515 179.29 37.3515ZM179.29 21.8435C175.22 21.8435 172.062 25.1545 172.062 29.0712C172.062 30.2768 172.362 31.3295 172.815 32.3822C173.715 34.0406 175.22 35.3932 177.032 35.846C177.784 35.9989 178.384 36.1459 179.137 36.1459C183.201 36.1459 186.365 32.835 186.365 28.9183C186.365 27.7186 186.065 26.66 185.612 25.6073C184.406 23.3491 181.995 21.8435 179.29 21.8435Z" fill="#3854A2"/>
<path d="M173.715 43.5265C172.815 43.5265 172.062 43.3736 171.309 43.2207C166.94 41.8681 164.535 37.1986 165.887 32.835C167.246 28.4713 171.909 26.0602 176.279 27.4128C180.642 28.7713 183.054 33.4348 181.695 37.8044C181.095 39.4569 180.043 40.9624 178.684 42.021C177.179 42.9208 175.526 43.5265 173.715 43.5265ZM173.715 28.0185C169.651 28.0185 166.493 31.3295 166.64 35.3932C166.64 38.5571 168.751 41.2682 171.609 42.168C172.362 42.3209 172.962 42.4679 173.715 42.4679C177.631 42.4679 180.942 39.3099 180.942 35.2462C180.942 34.0406 180.642 32.835 180.043 31.7823C179.137 30.1239 177.631 28.7713 175.826 28.3184C175.22 28.1655 174.467 28.0185 173.715 28.0185Z" fill="#3854A2"/>
<path d="M165.74 45.7848C161.224 45.7848 157.46 42.021 157.46 37.5044C157.46 32.9879 161.224 29.2241 165.74 29.2241C170.257 29.2241 174.021 32.9879 174.021 37.5044C174.021 40.5155 172.362 43.3736 169.651 44.8791C168.445 45.479 167.093 45.7848 165.74 45.7848ZM165.74 30.2768C164.535 30.2768 163.329 30.5767 162.423 31.1766C158.965 33.1349 157.607 37.5044 159.412 40.9624C160.318 42.6208 161.824 43.8264 163.629 44.4263C165.434 45.032 167.393 44.8791 169.198 43.9734C172.662 42.168 174.021 37.8044 172.209 34.1876C171.309 32.535 169.804 31.1766 167.999 30.7296C167.246 30.4238 166.493 30.2768 165.74 30.2768Z" fill="#3854A2"/>
<path d="M157.907 43.3736C157.007 43.3736 156.254 43.2207 155.502 42.9208C151.132 41.4152 148.874 36.7517 150.232 32.3821C151.585 28.1655 156.101 25.9072 160.318 27.1128C164.682 28.4713 167.093 33.1349 165.74 37.5044C165.135 39.6098 163.629 41.4152 161.671 42.3209C160.471 43.0737 159.112 43.3736 157.907 43.3736ZM157.907 27.8656C153.843 27.8656 150.685 31.1766 150.832 35.2462C150.832 38.2572 152.943 40.9624 155.802 42.021C156.554 42.3209 157.154 42.3209 157.907 42.3209C161.976 42.021 164.988 38.7041 164.682 34.6404C164.382 31.0295 161.524 28.0185 157.907 27.8656Z" fill="#3854A2"/>
</g>
<path d="M7.61187 32.1377C6.44472 32.1377 5.38751 32.0027 4.44026 31.7329C3.50992 31.4462 2.68107 31.0415 1.95371 30.5188C1.22636 29.9791 0.575119 29.3467 0 28.6216L2.61341 25.6621C3.45917 26.7919 4.30493 27.5508 5.1507 27.9386C6.01338 28.3265 6.90143 28.5204 7.81485 28.5204C8.27157 28.5204 8.68599 28.4614 9.05812 28.3434C9.43026 28.2253 9.71782 28.0567 9.9208 27.8375C10.1238 27.6014 10.2253 27.3147 10.2253 26.9774C10.2253 26.7245 10.1576 26.4968 10.0223 26.2944C9.90389 26.0921 9.73473 25.915 9.51484 25.7632C9.29494 25.6115 9.03275 25.4766 8.72828 25.3585C8.4238 25.2236 8.10241 25.114 7.76411 25.0297C7.4258 24.9285 7.07904 24.8442 6.72382 24.7767C5.74273 24.5575 4.88851 24.2877 4.16116 23.9673C3.4338 23.6469 2.82485 23.259 2.33431 22.8037C1.86068 22.3315 1.50546 21.8003 1.26864 21.2101C1.03183 20.603 0.913424 19.9285 0.913424 19.1865C0.913424 18.3939 1.09103 17.6688 1.44626 17.0111C1.81839 16.3365 2.30893 15.7632 2.91788 15.291C3.54375 14.802 4.26265 14.431 5.07458 14.178C5.88651 13.9082 6.73228 13.7733 7.61187 13.7733C8.77902 13.7733 9.77702 13.8998 10.6059 14.1527C11.4516 14.3888 12.1705 14.7345 12.7626 15.1898C13.3715 15.6451 13.8874 16.1932 14.3103 16.834L11.6462 19.3888C11.2909 18.9504 10.9019 18.5878 10.479 18.3011C10.073 18.0145 9.63324 17.7952 9.15962 17.6435C8.7029 17.4917 8.22928 17.4158 7.73873 17.4158C7.23128 17.4158 6.79148 17.4833 6.41934 17.6182C6.06412 17.7362 5.78502 17.9133 5.58204 18.1494C5.37905 18.3686 5.27756 18.6384 5.27756 18.9588C5.27756 19.2455 5.36214 19.49 5.53129 19.6924C5.70044 19.8947 5.9288 20.0802 6.21636 20.2489C6.50392 20.4006 6.83377 20.5355 7.2059 20.6536C7.57804 20.7548 7.96709 20.8391 8.37306 20.9065C9.3034 21.092 10.1407 21.3366 10.885 21.6401C11.6462 21.9437 12.2974 22.3147 12.8387 22.7531C13.3969 23.1916 13.8198 23.7143 14.1073 24.3214C14.4118 24.9116 14.564 25.603 14.564 26.3956C14.564 27.6267 14.2596 28.6722 13.6506 29.5322C13.0586 30.3754 12.2382 31.0247 11.1894 31.48C10.1576 31.9184 8.96509 32.1377 7.61187 32.1377Z" fill="white"/>
<path d="M17.8064 31.8847V14.178H30.1884V17.8458H21.993V28.2169H30.4421V31.8847H17.8064ZM19.8363 24.625V21.1342H29.0466V24.625H19.8363Z" fill="white"/>
<path d="M31.9019 31.8847L38.9302 14.178H42.5838L49.5614 31.8847H45.1973L41.848 22.9049C41.7127 22.5507 41.5774 22.1713 41.4421 21.7666C41.3067 21.3619 41.1714 20.9487 41.0361 20.5271C40.9008 20.0887 40.7655 19.6671 40.6301 19.2624C40.5117 18.8408 40.4102 18.4529 40.3257 18.0988L41.0868 18.0735C40.9854 18.4951 40.8669 18.9082 40.7316 19.3129C40.6132 19.7177 40.4864 20.1224 40.351 20.5271C40.2326 20.915 40.0973 21.3113 39.9451 21.716C39.7928 22.1039 39.649 22.5086 39.5137 22.9302L36.1645 31.8847H31.9019ZM35.2511 28.4951L36.5958 25.2573H44.7659L46.0853 28.4951H35.2511Z" fill="white"/>
<path d="M68.1508 32.1377C66.7299 32.1377 65.4444 31.91 64.2941 31.4547C63.1439 30.9994 62.1543 30.3585 61.3255 29.5322C60.4966 28.7059 59.8623 27.7363 59.4225 26.6233C58.9827 25.4934 58.7628 24.2708 58.7628 22.9555C58.7628 21.6401 58.9912 20.4344 59.4479 19.3382C59.9215 18.2252 60.5897 17.2556 61.4524 16.4293C62.315 15.603 63.33 14.9622 64.4971 14.5068C65.6812 14.0515 66.9667 13.8239 68.3538 13.8239C69.3349 13.8239 70.2568 13.9503 71.1194 14.2033C71.999 14.4563 72.794 14.802 73.5045 15.2404C74.2149 15.6789 74.8154 16.1848 75.306 16.7581L72.6926 19.5153C72.2697 19.1106 71.8299 18.7733 71.3732 18.5035C70.9334 18.2337 70.4597 18.0229 69.9523 17.8711C69.4448 17.7025 68.9035 17.6182 68.3284 17.6182C67.5841 17.6182 66.8991 17.7531 66.2732 18.0229C65.6643 18.2927 65.123 18.6721 64.6493 19.1612C64.1926 19.6334 63.8374 20.1983 63.5837 20.856C63.33 21.4968 63.2031 22.1966 63.2031 22.9555C63.2031 23.7143 63.3384 24.4226 63.6091 25.0803C63.8797 25.7379 64.2518 26.3113 64.7255 26.8003C65.1991 27.2725 65.7573 27.652 66.4001 27.9386C67.0598 28.2085 67.7618 28.3434 68.506 28.3434C69.0304 28.3434 69.5209 28.259 69.9777 28.0904C70.4513 27.9218 70.8572 27.6941 71.1956 27.4074C71.5339 27.1208 71.8045 26.7835 72.0075 26.3956C72.2105 25.9909 72.312 25.5609 72.312 25.1056V24.4479L72.8702 25.3079H67.9732V21.9437H76.3209C76.3547 22.1292 76.3801 22.3821 76.397 22.7025C76.4139 23.0229 76.4224 23.3349 76.4224 23.6384C76.4393 23.942 76.4477 24.1696 76.4477 24.3214C76.4477 25.4681 76.2363 26.5221 75.8134 27.4833C75.4075 28.4277 74.8323 29.2456 74.0881 29.937C73.3438 30.6284 72.4642 31.168 71.4493 31.5559C70.4344 31.9437 69.3349 32.1377 68.1508 32.1377Z" fill="white"/>
<path d="M84.2937 32.1124C83.1604 32.1124 82.1455 31.8172 81.249 31.227C80.3694 30.6199 79.6674 29.7936 79.143 28.7481C78.6186 27.6857 78.3565 26.4884 78.3565 25.1562C78.3565 23.7902 78.6186 22.5845 79.143 21.5389C79.6674 20.4934 80.3863 19.6755 81.2997 19.0853C82.2131 18.4782 83.2534 18.1747 84.4206 18.1747C85.0634 18.1747 85.6469 18.2674 86.1713 18.4529C86.7126 18.6384 87.1862 18.8998 87.5922 19.2371C87.9982 19.5575 88.3449 19.9369 88.6325 20.3753C88.92 20.7969 89.1315 21.2523 89.2668 21.7413L88.4295 21.6401V18.4529H92.4638V31.8847H88.3534V28.6469L89.2668 28.6216C89.1315 29.0938 88.9116 29.5407 88.6071 29.9623C88.3026 30.3838 87.9305 30.7548 87.4907 31.0753C87.0509 31.3957 86.5604 31.6486 86.0191 31.8341C85.4778 32.0196 84.9027 32.1124 84.2937 32.1124ZM85.4101 28.6975C86.036 28.6975 86.5773 28.5542 87.034 28.2675C87.4907 27.9808 87.8459 27.5761 88.0997 27.0533C88.3534 26.5137 88.4802 25.8813 88.4802 25.1562C88.4802 24.431 88.3534 23.8071 88.0997 23.2843C87.8459 22.7447 87.4907 22.3315 87.034 22.0448C86.5773 21.7413 86.036 21.5895 85.4101 21.5895C84.8012 21.5895 84.2683 21.7413 83.8116 22.0448C83.3718 22.3315 83.0251 22.7447 82.7713 23.2843C82.5176 23.8071 82.3907 24.431 82.3907 25.1562C82.3907 25.8813 82.5176 26.5137 82.7713 27.0533C83.0251 27.5761 83.3718 27.9808 83.8116 28.2675C84.2683 28.5542 84.8012 28.6975 85.4101 28.6975Z" fill="white"/>
<path d="M96.0206 31.8847V18.4529H99.8772L100.004 20.8813L99.4713 20.9065C99.6743 20.4681 99.928 20.0802 100.232 19.743C100.554 19.4057 100.909 19.1274 101.298 18.9082C101.704 18.6721 102.119 18.4951 102.541 18.377C102.981 18.259 103.421 18.2 103.861 18.2C104.52 18.2 105.121 18.3011 105.662 18.5035C106.204 18.7059 106.677 19.0347 107.083 19.49C107.489 19.9285 107.81 20.5271 108.047 21.286L107.413 21.2354L107.616 20.8307C107.836 20.4259 108.115 20.0634 108.453 19.743C108.808 19.4057 109.198 19.1274 109.62 18.9082C110.043 18.6721 110.483 18.4951 110.94 18.377C111.397 18.259 111.836 18.2 112.259 18.2C113.325 18.2 114.213 18.4107 114.923 18.8323C115.634 19.2371 116.167 19.8526 116.522 20.6789C116.894 21.5052 117.08 22.5086 117.08 23.689V31.8847H112.995V24.0179C112.995 23.4782 112.919 23.0314 112.767 22.6772C112.614 22.3231 112.386 22.0617 112.082 21.8931C111.794 21.7076 111.43 21.6148 110.991 21.6148C110.635 21.6148 110.305 21.6738 110.001 21.7919C109.713 21.9099 109.46 22.0701 109.24 22.2725C109.037 22.4749 108.876 22.7109 108.758 22.9808C108.639 23.2506 108.58 23.5541 108.58 23.8914V31.8847H104.495V23.9926C104.495 23.4867 104.419 23.0566 104.267 22.7025C104.115 22.3484 103.886 22.0786 103.582 21.8931C103.277 21.7076 102.922 21.6148 102.516 21.6148C102.161 21.6148 101.831 21.6738 101.526 21.7919C101.239 21.9099 100.985 22.0701 100.765 22.2725C100.562 22.4749 100.402 22.7109 100.283 22.9808C100.165 23.2506 100.106 23.5457 100.106 23.8661V31.8847H96.0206Z" fill="white"/>
<path d="M126.872 32.1377C125.383 32.1377 124.089 31.8425 122.99 31.2523C121.89 30.6452 121.036 29.8273 120.427 28.7987C119.818 27.7531 119.514 26.5643 119.514 25.232C119.514 24.2034 119.683 23.259 120.021 22.399C120.359 21.5389 120.833 20.7969 121.442 20.173C122.051 19.5322 122.77 19.0431 123.599 18.7059C124.444 18.3517 125.366 18.1747 126.364 18.1747C127.312 18.1747 128.174 18.3433 128.952 18.6806C129.747 19.0178 130.432 19.49 131.008 20.0971C131.583 20.7042 132.023 21.4209 132.327 22.2472C132.631 23.0735 132.767 23.9757 132.733 24.9538L132.708 26.0415H121.975L121.391 23.7649H129.409L128.978 24.2455V23.7396C128.944 23.318 128.809 22.947 128.572 22.6266C128.352 22.2894 128.056 22.028 127.684 21.8425C127.312 21.657 126.889 21.5642 126.415 21.5642C125.755 21.5642 125.189 21.6991 124.715 21.9689C124.258 22.2219 123.912 22.6013 123.675 23.1072C123.438 23.5963 123.32 24.2034 123.32 24.9285C123.32 25.6705 123.472 26.3197 123.776 26.8762C124.098 27.4159 124.554 27.8375 125.146 28.141C125.755 28.4445 126.474 28.5963 127.303 28.5963C127.878 28.5963 128.386 28.512 128.826 28.3434C129.282 28.1747 129.773 27.888 130.297 27.4833L132.2 30.1646C131.676 30.6199 131.118 30.9909 130.526 31.2776C129.933 31.5643 129.325 31.7751 128.699 31.91C128.09 32.0618 127.481 32.1377 126.872 32.1377Z" fill="white"/>
<path d="M139.861 32.1377C138.542 32.1377 137.375 31.9269 136.36 31.5053C135.362 31.0837 134.567 30.5188 133.975 29.8105L136.436 27.6857C136.96 28.2085 137.552 28.5963 138.212 28.8493C138.872 29.0854 139.497 29.2034 140.09 29.2034C140.326 29.2034 140.538 29.1781 140.724 29.1275C140.91 29.0769 141.062 29.0095 141.181 28.9252C141.316 28.824 141.417 28.7144 141.485 28.5963C141.553 28.4614 141.587 28.3096 141.587 28.141C141.587 27.8037 141.434 27.5423 141.13 27.3568C140.978 27.2725 140.724 27.1713 140.369 27.0533C140.013 26.9353 139.557 26.8003 138.998 26.6486C138.203 26.4462 137.51 26.2101 136.918 25.9403C136.343 25.6536 135.869 25.3248 135.497 24.9538C135.159 24.5997 134.897 24.2118 134.71 23.7902C134.524 23.3518 134.431 22.8627 134.431 22.3231C134.431 21.6991 134.575 21.1342 134.863 20.6283C135.167 20.1224 135.565 19.6839 136.055 19.3129C136.563 18.9419 137.138 18.6637 137.781 18.4782C138.44 18.2758 139.117 18.1747 139.81 18.1747C140.555 18.1747 141.265 18.259 141.942 18.4276C142.618 18.5962 143.244 18.8323 143.819 19.1359C144.411 19.4394 144.936 19.802 145.392 20.2236L143.261 22.6013C142.957 22.3147 142.61 22.0617 142.221 21.8425C141.849 21.6064 141.46 21.4209 141.054 21.286C140.648 21.1511 140.276 21.0836 139.937 21.0836C139.684 21.0836 139.455 21.1089 139.252 21.1595C139.066 21.1932 138.905 21.2607 138.77 21.3619C138.635 21.4462 138.533 21.5558 138.466 21.6907C138.398 21.8087 138.364 21.9521 138.364 22.1207C138.364 22.2894 138.406 22.4496 138.491 22.6013C138.592 22.7531 138.728 22.8796 138.897 22.9808C139.066 23.0819 139.337 23.2 139.709 23.3349C140.081 23.4529 140.589 23.6047 141.231 23.7902C142.026 24.0094 142.711 24.254 143.286 24.5238C143.862 24.7936 144.318 25.114 144.657 25.485C144.927 25.7717 145.13 26.1089 145.266 26.4968C145.401 26.8678 145.469 27.2725 145.469 27.711C145.469 28.571 145.223 29.3383 144.733 30.0128C144.259 30.6705 143.599 31.1933 142.754 31.5812C141.908 31.9522 140.944 32.1377 139.861 32.1377Z" fill="white"/>
<path d="M161.49 32.1377C160.052 32.1377 158.792 31.8425 157.709 31.2523C156.644 30.6452 155.671 29.6081 154.791 28.141L157.887 26.1427C158.259 26.7329 158.64 27.2051 159.029 27.5592C159.435 27.9133 159.849 28.1747 160.272 28.3434C160.712 28.4951 161.168 28.571 161.642 28.571C162.116 28.571 162.547 28.4698 162.936 28.2675C163.342 28.0482 163.663 27.7447 163.9 27.3568C164.154 26.969 164.281 26.5305 164.281 26.0415C164.281 25.5187 164.171 25.0803 163.951 24.7261C163.748 24.3551 163.443 24.0769 163.038 23.8914C162.648 23.7059 162.175 23.6131 161.617 23.6131C161.363 23.6131 161.092 23.6469 160.805 23.7143C160.517 23.7649 160.213 23.8408 159.891 23.942C159.57 24.0432 159.24 24.1781 158.902 24.3467L157.963 21.8425L162.276 17.1628L163.443 17.7952L156.035 17.6435V14.0262H166.945L167.732 15.5945L161.87 21.8678L160.855 20.6789C160.991 20.6114 161.211 20.5524 161.515 20.5018C161.837 20.4344 162.141 20.4006 162.429 20.4006C163.224 20.4006 163.968 20.544 164.661 20.8307C165.355 21.1173 165.972 21.5136 166.514 22.0195C167.055 22.5254 167.478 23.1241 167.782 23.8155C168.087 24.49 168.239 25.2152 168.239 25.9909C168.239 27.1713 167.934 28.2253 167.326 29.1528C166.733 30.0634 165.922 30.7886 164.89 31.3282C163.875 31.8678 162.741 32.1377 161.49 32.1377Z" fill="white"/>
<path d="M174.552 30.6452V16.2775L175.491 18.4276L171.685 20.2236L170.949 16.3787L175.999 13.9251H178.79V30.6452H174.552ZM171.305 31.8847V28.0904H182.113V31.8847H171.305Z" fill="white"/>
<defs>
<clipPath id="clip0_1_3">
<rect width="45.9109" height="45.9109" fill="white" transform="translate(143.089)"/>
</clipPath>
</defs>
</svg>
