<svg width="1501" height="176" viewBox="0 0 1501 176" fill="none" xmlns="http://www.w3.org/2000/svg">
<path d="M432.382 28.4288H465.296V135.019H568.974V166.667H432.382V28.4288Z" fill="black"/>
<path d="M585.381 28.4288H726.151V60.0767H618.295V79.3186H676.147V109.574H618.295V166.667H585.381V28.4288Z" fill="black"/>
<path d="M743.95 28.4288H770.155L881.049 119.954V28.4288H914.343V166.667H887.885L776.864 74.8879V166.667H743.95V28.4288Z" fill="black"/>
<path d="M949.612 28.4288H1091.9V60.0767H982.526V79.3186H1046.07V109.574H982.526V135.019H1093.29V166.667H949.612V28.4288Z" fill="black"/>
<path d="M1097.42 28.4288H1131.85L1166.67 119.195L1203 28.4288H1227.56L1264.65 119.195L1298.07 28.4288H1327.69L1273.76 166.667H1250.6L1212.49 71.7231L1174.14 166.667H1150.84L1097.42 28.4288Z" fill="black"/>
<path d="M170.332 66.6667H147.698H79.7967C79.7967 85.0427 95.031 100 113.747 100H136.381H170.332V133.333H136.381H68.4798H34.5292V100V66.6667V33.3333H51.5045H68.4798H170.332C189.048 33.3333 204.282 18.3761 204.282 0H170.332H136.381H51.5045H34.5292C15.8128 0 0.578613 14.9573 0.578613 33.3333V66.6667V100V133.333C0.578613 151.709 15.8128 166.667 34.5292 166.667H170.332C189.048 166.667 204.282 151.709 204.282 133.333V100C204.282 81.6239 189.048 66.6667 170.332 66.6667Z" fill="black"/>
<path d="M1472.8 77.7778H1389.47H1361.69V48.1482H1389.47H1472.8C1488.11 48.1482 1500.58 34.8528 1500.58 18.5186H1472.8H1445.02H1361.69C1346.38 18.5186 1333.91 31.8139 1333.91 48.1482V77.7778C1333.91 94.1121 1346.38 107.407 1361.69 107.407H1445.02H1472.8V137.037H1445.02H1361.69C1346.38 137.037 1333.91 150.332 1333.91 166.667H1361.69H1389.47H1472.8C1488.11 166.667 1500.58 153.371 1500.58 137.037V107.407C1500.58 91.0732 1488.11 77.7778 1472.8 77.7778Z" fill="black"/>
<path d="M292.646 53.8537C296.396 53.8537 299.448 50.7834 299.448 46.9961C299.448 43.2272 296.396 40.1385 292.646 40.1385C288.895 40.1385 285.843 43.2088 285.843 46.9961C285.843 50.7834 288.895 53.8537 292.646 53.8537Z" fill="#008FFF"/>
<path d="M346.077 35.5405C341.352 35.5405 337.62 39.3095 337.62 44.0712C337.62 48.8329 341.37 52.6016 346.077 52.6016C350.802 52.6016 354.534 48.8329 354.534 44.0712C354.534 39.3095 350.802 35.5405 346.077 35.5405Z" fill="#008FFF"/>
<path d="M252.686 90.4927C256.289 90.4927 259.341 87.551 259.341 83.7821C259.341 80.1419 256.418 77.0715 252.686 77.0715C249.082 77.0715 246.03 80.0132 246.03 83.7821C246.159 87.551 249.064 90.4927 252.686 90.4927Z" fill="#008FFF"/>
<path d="M323.739 173.96C288.624 173.96 260.182 145.298 260.182 109.925C260.182 107.406 260.329 104.888 260.605 102.369C268.934 99.0228 275.736 92.7169 279.762 84.7562C280.038 84.2046 280.314 83.2118 280.314 82.6602C280.314 80.7114 278.788 79.4429 276.839 79.4429C275.313 79.4429 274.063 80.4171 273.511 81.8144C270.588 89.7751 262.958 95.3825 254.079 95.3825C249.225 95.3825 244.776 93.7096 241.319 90.9151C241.466 92.8639 241.319 94.8311 241.319 96.927V99.8686V99.9972C241.319 100.549 241.319 101.119 241.466 101.817V102.093C241.466 102.645 241.595 103.067 241.595 103.619V104.042V104.465C245.346 144.452 278.788 175.78 319.455 175.78C321.809 175.78 324.18 175.651 326.534 175.504C326.258 174.953 325.982 174.383 325.706 173.978C325.118 173.831 324.419 173.96 323.739 173.96Z" fill="#008FFF"/>
<path d="M249.915 73.4298C251.018 73.154 251.588 70.6352 252.415 68.5393C252.838 67.8407 253.537 67.4178 254.787 67.8406C255.89 68.2635 263.943 73.0068 273.797 81.4088C273.797 81.4088 273.797 81.5376 273.668 81.5376L276.445 80.6917L276.169 79.4417C271.168 75.3786 261.314 67.9695 253.28 65.4507C251.202 64.8992 248.003 67.5466 247.452 67.9695C247.176 68.521 245.503 69.7895 246.477 71.6097C247.415 73.2827 248.794 73.7055 249.915 73.4298Z" fill="#008FFF"/>
<path d="M330.671 49.9333C330.671 43.7743 325.67 38.8839 319.714 38.8839C313.61 38.8839 308.756 43.9214 308.756 49.9333C308.756 55.9452 313.757 60.9827 319.714 60.9827C325.67 60.9827 330.671 55.9452 330.671 49.9333Z" fill="#187B02"/>
<path d="M317.749 30.2068C320.415 27.5226 320.415 23.1837 317.749 20.5179C315.083 17.8521 310.781 17.8521 308.134 20.5179C305.468 23.1837 305.468 27.541 308.134 30.2068C310.781 32.891 315.083 32.891 317.749 30.2068Z" fill="#187B02"/>
<path d="M265.718 43.9204C260.993 43.9204 257.261 47.6894 257.261 52.4511C257.261 57.1944 261.012 60.9817 265.718 60.9817C270.443 60.9817 274.175 57.2128 274.175 52.4511C274.194 47.8364 270.296 43.9204 265.718 43.9204Z" fill="#187B02"/>
<path d="M361.064 39.6021C363.417 39.6021 365.366 37.6533 365.366 35.2633C365.366 32.8916 363.417 30.9244 361.064 30.9244C358.71 30.9244 356.762 32.8732 356.762 35.2633C356.762 37.6349 358.71 39.6021 361.064 39.6021Z" fill="#187B02"/>
<path d="M372.873 60.9832C368.295 60.9832 364.692 64.6234 364.692 69.238C364.692 73.8526 368.295 77.4928 372.873 77.4928C377.451 77.4928 381.073 73.8526 381.073 69.238C381.054 64.6234 377.304 60.9832 372.873 60.9832Z" fill="#187B02"/>
<path d="M396.177 81.1151C395.479 77.769 392.574 75.1034 388.952 75.1034C386.874 75.1034 384.926 75.9489 383.547 77.4749C380.072 82.0895 374.667 85.0311 368.563 85.0311C360.51 85.0311 353.579 79.8651 350.932 72.5846C350.656 71.4631 349.957 70.4887 348.854 69.7901C359.959 56.7919 370.089 49.6584 371.468 48.9597C372.847 48.2611 373.821 48.5369 374.52 49.3826C376.046 51.7542 377.149 54.5489 378.399 54.8431C379.778 54.9902 381.322 54.2915 382.149 52.0485C382.977 49.8056 380.899 48.7024 380.201 48.1325C379.502 47.7097 375.347 45.0621 372.847 46.1652C362.165 51.4785 349.81 65.1937 346.06 69.3854C343.982 69.6612 342.309 71.4815 342.309 73.7245C342.309 74.4231 342.456 75.1216 342.732 75.6732V75.8202C342.732 75.9672 342.861 75.9673 342.861 76.096C348.413 86.5754 358.819 93.9847 371.173 95.2532C374.372 102.24 376.027 110.071 376.027 118.179C376.027 149.084 351.189 174.253 320.376 174.253C319.126 174.253 317.875 174.253 316.497 174.106C317.048 174.658 317.6 175.375 318.023 175.927H319.549C362.716 175.927 397.832 140.682 397.832 97.0549C397.85 89.5171 396.177 81.1151 396.177 81.1151Z" fill="#187B02"/>
<path d="M338.449 31.6231C341.373 31.6231 343.854 29.2515 343.854 26.1628C343.854 23.2212 341.483 20.7023 338.449 20.7023C335.526 20.7023 333.044 23.0741 333.044 26.1628C333.026 29.1044 335.526 31.6231 338.449 31.6231Z" fill="#FF4D01"/>
<path d="M285.984 32.8739C285.984 30.5022 284.035 28.535 281.682 28.535C279.329 28.535 277.38 30.4838 277.38 32.8739C277.38 35.2455 279.329 37.2127 281.682 37.2127C284.182 37.2127 285.984 35.2639 285.984 32.8739Z" fill="#FF4D01"/>
<path d="M304.432 91.8905C309.01 91.8905 312.614 88.2501 312.614 83.6355C312.614 79.0208 309.01 75.3806 304.432 75.3806C299.854 75.3806 296.251 79.0208 296.251 83.6355C296.251 88.2501 300.002 91.8905 304.432 91.8905Z" fill="#FF4D01"/>
<path d="M336.643 102.937C333.04 102.937 329.988 105.879 329.988 109.647C329.988 113.288 332.911 116.358 336.643 116.358C340.247 116.358 343.298 113.416 343.298 109.647C343.298 106.007 340.394 102.937 336.643 102.937Z" fill="#FF4D01"/>
<path d="M357.45 118.73C357.45 118.307 357.303 117.884 357.174 117.461C357.174 117.333 357.027 117.038 357.027 117.038C356.053 113.968 353.552 112.001 349.802 111.872C345.5 111.597 342.999 116.064 342.999 116.064C338.422 123.197 330.369 127.941 321.36 127.941C319.136 127.941 316.911 127.665 314.834 127.095C328.291 101.779 340.095 94.241 340.095 94.241C340.095 94.241 341.492 95.5096 342.595 95.6383C345.095 96.0612 347.596 94.3698 346.75 93.3954C345.077 91.7224 341.345 90.6008 340.223 91.4465C323.842 104.316 313.988 122.756 311.488 127.665C310.789 128.217 310.385 129.209 310.385 130.184C310.385 131.581 311.212 132.703 312.333 133.254C315.661 134.798 319.265 135.626 323.291 135.626C327.17 135.626 330.792 134.78 333.972 133.254C333.972 133.254 335.37 132.555 336.749 132.555C340.076 132.555 342.852 135.35 342.852 138.714C342.852 138.861 342.577 149.617 333.972 160.813H333.844C329.818 165.851 323.714 169.068 316.911 169.068C309.134 169.068 302.332 165.023 298.6 158.717C295.401 152.705 293.599 145.719 293.599 138.439C293.599 121.947 302.755 107.533 316.36 100.271C323.714 97.054 328.714 89.4977 329.542 81.1141C329.67 79.7169 329.818 73.0065 324.688 73.4293H324.136C317.886 70.0649 303.876 63.2256 289.573 63.2256C288.047 63.2256 285.546 66.1673 285.142 68.3919C284.866 69.6421 287.918 69.6421 289.867 67.9691C290.841 67.1233 291.264 65.4503 291.264 65.4503C291.264 65.4503 298.618 62.6557 322.077 75.231C321.655 75.7826 321.526 76.9041 321.526 76.9041C320.698 87.2549 312.223 95.3625 301.688 95.3625C300.585 95.3625 299.611 95.2156 298.637 95.0869C297.938 94.9398 297.111 94.8111 296.283 94.8111C293.084 94.8111 290.179 96.3553 288.506 98.8741H288.378C283.377 107.258 280.472 117.186 280.472 127.683C280.472 143.2 286.723 157.32 296.982 167.542L298.508 168.792C298.508 168.792 306.413 175.926 317.242 175.65C321.544 175.521 325.295 174.528 328.2 173.407C328.751 173.26 329.174 172.984 329.597 172.708C329.873 172.58 330.02 172.579 330.295 172.432C330.295 172.432 330.443 172.432 330.443 172.304C330.571 172.157 330.865 172.157 330.994 172.028H331.141C331.27 171.881 331.417 171.881 331.564 171.752C347.375 163.369 358.204 146.583 358.204 127.297C358.149 124.466 358.002 121.524 357.45 118.73Z" fill="#FF4D01"/>
</svg>
